<svg width="20" height="20" viewBox="0 0 20 20" fill="none" xmlns="http://www.w3.org/2000/svg">
<path d="M16.8253 11.7167L15.8837 10.15C15.6753 9.80837 15.492 9.15004 15.492 8.75004V7.19171C15.492 4.16671 13.0337 1.70837 10.017 1.70837C6.992 1.71671 4.53367 4.16671 4.53367 7.19171V8.74171C4.53367 9.14171 4.35033 9.80004 4.15033 10.1417L3.20867 11.7084C2.85033 12.3167 2.767 13.0084 2.992 13.6084C3.217 14.2167 3.72533 14.7 4.392 14.9167C5.292 15.2167 6.20033 15.4334 7.12533 15.5917C7.217 15.6084 7.30866 15.6167 7.40033 15.6334C7.517 15.65 7.642 15.6667 7.767 15.6834C7.98366 15.7167 8.20033 15.7417 8.42533 15.7584C8.95033 15.8084 9.48367 15.8334 10.017 15.8334C10.542 15.8334 11.067 15.8084 11.5837 15.7584C11.7753 15.7417 11.967 15.725 12.1503 15.7C12.3003 15.6834 12.4503 15.6667 12.6003 15.6417C12.692 15.6334 12.7837 15.6167 12.8753 15.6C13.8087 15.45 14.7337 15.2167 15.6337 14.9167C16.2753 14.7 16.767 14.2167 17.0003 13.6C17.2337 12.975 17.167 12.2917 16.8253 11.7167ZM10.6253 8.33337C10.6253 8.68337 10.342 8.96671 9.992 8.96671C9.642 8.96671 9.35866 8.68337 9.35866 8.33337V5.75004C9.35866 5.40004 9.642 5.11671 9.992 5.11671C10.342 5.11671 10.6253 5.40004 10.6253 5.75004V8.33337Z" fill="#6904EC"/>
<path d="M12.3587 16.675C12.0087 17.6416 11.0837 18.3333 10.0004 18.3333C9.34206 18.3333 8.69206 18.0666 8.23372 17.5916C7.96706 17.3416 7.76706 17.0083 7.65039 16.6666C7.75872 16.6833 7.86706 16.6916 7.98372 16.7083C8.17539 16.7333 8.37539 16.7583 8.57539 16.775C9.05039 16.8166 9.53372 16.8416 10.0171 16.8416C10.4921 16.8416 10.9671 16.8166 11.4337 16.775C11.6087 16.7583 11.7837 16.75 11.9504 16.725C12.0837 16.7083 12.2171 16.6916 12.3587 16.675Z" fill="#6904EC"/>
</svg>
