<svg width="20" height="20" viewBox="0 0 20 20" fill="none" xmlns="http://www.w3.org/2000/svg">
<path d="M9.58366 17.5C13.9559 17.5 17.5003 13.9555 17.5003 9.58329C17.5003 5.21104 13.9559 1.66663 9.58366 1.66663C5.2114 1.66663 1.66699 5.21104 1.66699 9.58329C1.66699 13.9555 5.2114 17.5 9.58366 17.5Z" fill="#6904EC"/>
<path d="M17.7501 18.3333C17.6001 18.3333 17.4501 18.275 17.3418 18.1667L15.7918 16.6167C15.5668 16.3917 15.5668 16.025 15.7918 15.7917C16.0168 15.5667 16.3835 15.5667 16.6168 15.7917L18.1668 17.3417C18.3918 17.5667 18.3918 17.9333 18.1668 18.1667C18.0501 18.275 17.9001 18.3333 17.7501 18.3333Z" fill="#6904EC"/>
</svg>
